<?xml version="1.0" standalone="no"?>
<!DOCTYPE svg PUBLIC "-//W3C//DTD SVG 20010904//EN"
 "http://www.w3.org/TR/2001/REC-SVG-20010904/DTD/svg10.dtd">
<svg version="1.0" xmlns="http://www.w3.org/2000/svg"
 width="500.000000pt" height="500.000000pt" viewBox="0 0 500.000000 500.000000"
 preserveAspectRatio="xMidYMid meet">

<g transform="translate(0.000000,500.000000) scale(0.100000,-0.100000)"
fill="#000000" stroke="none">
<path d="M933 3357 c-62 -5 -113 -13 -113 -18 0 -5 4 -9 9 -9 27 0 31 -79 31
-635 0 -556 -4 -635 -31 -635 -5 0 -9 -4 -9 -10 0 -6 43 -10 110 -10 61 0 110
3 110 7 0 3 -8 15 -17 26 -16 17 -18 51 -21 348 l-3 329 26 0 c14 0 25 5 25
10 0 6 -11 10 -25 10 l-25 0 0 289 0 288 99 7 c197 14 342 -33 417 -135 31
-43 44 -90 44 -164 0 -72 -26 -135 -78 -187 l-36 -38 64 0 c63 0 64 1 110 48
52 54 70 103 70 188 -1 118 -45 186 -153 239 -40 19 -107 42 -150 50 -88 17
-276 18 -454 2z"/>
<path d="M1890 3358 c-63 -5 -117 -12 -119 -14 -2 -2 4 -13 15 -25 17 -19 19
-41 22 -255 l3 -234 64 0 65 0 2 258 3 257 90 8 c215 20 380 -42 448 -168 17
-32 22 -57 22 -125 0 -75 -3 -91 -27 -131 -15 -26 -42 -59 -59 -73 l-31 -26
64 0 c56 0 68 4 101 31 62 51 82 100 82 199 0 68 -5 93 -22 125 -41 78 -113
128 -228 160 -75 21 -331 28 -495 13z"/>
<path d="M2720 3346 c0 -2 14 -33 30 -69 30 -66 30 -67 30 -251 0 -112 4 -187
10 -191 7 -4 10 53 11 162 l1 168 81 -167 81 -168 73 0 c40 0 73 2 73 3 0 2
-56 119 -125 260 l-124 257 -71 0 c-38 0 -70 -2 -70 -4z"/>
<path d="M3929 3203 c-152 -317 -178 -373 -170 -373 4 0 36 57 70 128 34 70
86 177 116 237 l54 110 -2 -600 c-2 -554 -3 -603 -19 -628 -10 -14 -18 -29
-18 -32 0 -3 50 -5 110 -5 67 0 110 4 110 10 0 6 -4 10 -9 10 -5 0 -15 15 -22
33 -11 26 -14 142 -14 602 0 460 3 576 14 603 7 17 17 32 22 32 5 0 9 5 9 10
0 6 -37 10 -90 10 l-91 0 -70 -147z"/>
<path d="M3655 2793 c-10 -3 -11 -250 -1 -260 16 -17 20 17 16 133 -3 81 -9
129 -15 127z"/>
<path d="M1088 2660 c-3 -118 -1 -130 15 -130 15 0 17 13 17 130 0 107 -3 130
-14 130 -12 0 -15 -25 -18 -130z"/>
<path d="M1213 2772 c10 -10 17 -27 17 -37 0 -10 -7 -27 -17 -37 -18 -20 -5
-25 19 -5 28 21 31 54 9 76 -26 26 -51 28 -28 3z"/>
<path d="M2040 2660 c0 -117 2 -130 18 -130 15 0 17 12 14 130 -3 105 -6 130
-18 130 -11 0 -14 -23 -14 -130z"/>
<path d="M2164 2774 c9 -8 16 -26 16 -39 0 -13 -7 -31 -16 -39 -13 -13 -13
-16 -1 -16 18 0 47 32 47 51 0 22 -29 59 -46 59 -14 0 -14 -2 0 -16z"/>
<path d="M3008 2773 c57 -128 118 -243 129 -243 7 0 13 2 13 4 0 2 -27 61 -59
130 -38 80 -66 126 -75 126 -11 0 -13 -5 -8 -17z"/>
<path d="M3255 2660 c0 -109 2 -130 15 -130 13 0 15 21 15 130 0 109 -2 130
-15 130 -13 0 -15 -21 -15 -130z"/>
<path d="M3704 2766 c-8 -22 3 -33 18 -18 9 9 9 15 0 24 -9 9 -13 7 -18 -6z"/>
<path d="M1430 2754 c0 -17 22 -14 28 4 2 7 -3 12 -12 12 -9 0 -16 -7 -16 -16z"/>
<path d="M1275 2620 c0 -73 3 -90 15 -90 12 0 15 15 13 78 -2 104 -1 102 -15
102 -10 0 -13 -25 -13 -90z"/>
<path d="M1342 2703 c19 -3 30 -12 34 -29 3 -13 9 -24 13 -24 16 0 19 13 9 36
-9 19 -18 24 -47 23 -30 -2 -32 -3 -9 -6z"/>
<path d="M1443 2703 c-9 -3 -13 -30 -13 -89 0 -73 2 -84 18 -84 15 0 17 9 14
62 -4 105 -6 115 -19 111z"/>
<path d="M1485 2620 c0 -73 3 -90 15 -90 12 0 15 12 14 53 -1 107 -4 127 -16
127 -10 0 -13 -25 -13 -90z"/>
<path d="M1578 2700 c20 -9 22 -16 22 -90 0 -70 2 -80 18 -80 15 0 16 8 12 77
-6 91 -12 103 -48 102 -26 0 -26 -1 -4 -9z"/>
<path d="M1692 2703 c23 -6 31 -38 26 -112 -3 -53 -1 -61 15 -61 16 0 17 8 14
75 -4 80 -17 106 -51 104 -17 -1 -17 -2 -4 -6z"/>
<path d="M1892 2680 c30 -30 48 -38 48 -21 0 13 -49 51 -66 51 -7 0 1 -13 18
-30z"/>
<path d="M2228 2620 c3 -70 7 -90 18 -90 11 0 14 19 14 90 0 79 -2 90 -17 90
-16 0 -18 -10 -15 -90z"/>
<path d="M2300 2701 c15 -4 26 -15 28 -29 3 -22 32 -32 32 -11 0 29 -22 49
-53 48 -30 -1 -30 -1 -7 -8z"/>
<path d="M2497 2695 c13 -9 28 -33 34 -54 10 -32 9 -45 -5 -72 l-16 -34 25 28
c14 16 25 40 25 57 0 33 -43 90 -68 90 -13 0 -12 -3 5 -15z"/>
<path d="M2650 2703 c8 -3 25 -17 37 -31 22 -26 23 -26 23 -5 0 24 -27 44 -57
42 -14 0 -14 -2 -3 -6z"/>
<path d="M2862 2680 c17 -17 35 -29 41 -27 15 5 -38 57 -57 57 -9 0 -4 -11 16
-30z"/>
<path d="M3432 2680 c30 -30 48 -38 48 -21 0 13 -49 51 -66 51 -7 0 1 -13 18
-30z"/>
<path d="M3531 2679 c-28 -28 -37 -56 -31 -99 3 -23 31 -50 52 -50 17 0 16 2
-3 21 -29 29 -23 114 11 141 12 10 18 18 12 18 -6 0 -24 -14 -41 -31z"/>
<path d="M3707 2703 c-4 -3 -7 -44 -7 -90 0 -72 2 -83 18 -83 15 0 17 10 14
90 -3 84 -8 100 -25 83z"/>
<path d="M3875 2695 c4 -11 10 -53 13 -92 2 -45 9 -73 16 -73 7 0 10 23 8 74
-3 60 -7 78 -24 93 -21 18 -21 18 -13 -2z"/>
<path d="M1804 2692 c-32 -21 -44 -93 -21 -123 18 -24 52 -39 84 -38 26 1 26
2 -7 9 -39 10 -57 30 -66 77 -4 23 -1 41 10 58 17 27 17 29 0 17z"/>
<path d="M2396 2678 c-26 -36 -20 -85 13 -119 16 -16 38 -29 48 -28 15 0 15 2
-4 11 -23 11 -53 64 -53 93 0 9 5 25 11 37 15 28 4 34 -15 6z"/>
<path d="M2754 2679 c-30 -33 -25 -96 9 -125 16 -14 39 -23 55 -23 23 2 24 2
5 6 -50 10 -80 92 -53 144 14 25 8 24 -16 -2z"/>
<path d="M3326 2678 c-42 -66 -4 -150 66 -147 29 2 30 3 7 6 -15 2 -35 13 -44
23 -22 24 -31 91 -16 119 15 28 5 27 -13 -1z"/>
<path d="M3790 2685 c-10 -12 -10 -15 2 -15 8 0 15 7 15 15 0 8 -1 15 -2 15
-2 0 -8 -7 -15 -15z"/>
<path d="M2590 2663 c0 -23 43 -63 68 -63 9 0 26 -10 39 -22 23 -21 23 -21 23
-1 0 24 -26 48 -62 57 -15 3 -37 16 -48 28 l-20 22 0 -21z"/>
<path d="M3764 2614 c-25 -37 -9 -78 31 -82 l30 -3 -23 17 c-20 13 -23 24 -20
55 2 22 2 39 1 39 -1 0 -10 -12 -19 -26z"/>
<path d="M2577 2566 c-7 -17 20 -36 50 -35 15 0 14 2 -4 9 -12 5 -26 16 -31
25 -8 16 -10 16 -15 1z"/>
<path d="M3008 2555 c-3 -16 -1 -25 7 -25 8 0 10 9 7 25 -2 14 -6 25 -7 25 -1
0 -5 -11 -7 -25z"/>
<path d="M1810 2222 c0 -78 -4 -106 -20 -137 -11 -22 -20 -41 -20 -42 0 -2 50
-3 110 -3 67 0 110 4 110 10 0 6 -4 10 -8 10 -19 0 -34 61 -40 158 l-5 102
-63 0 -64 0 0 -98z"/>
<path d="M2780 2273 c0 -66 -26 -172 -51 -205 l-20 -28 81 0 c44 0 80 1 80 3
0 1 -11 23 -24 49 -15 29 -29 84 -37 138 -13 97 -29 120 -29 43z"/>
<path d="M3277 2180 l67 -140 73 0 c40 0 73 2 73 5 0 3 -11 28 -25 55 l-25 50
30 61 c40 77 52 109 42 109 -5 0 -23 -31 -42 -70 -19 -38 -37 -70 -40 -70 -4
0 -22 32 -39 70 l-33 70 -73 0 -74 0 66 -140z"/>
<path d="M1480 1596 c0 -24 -3 -51 -6 -60 -4 -10 -1 -16 9 -16 10 0 17 11 20
33 l3 32 13 -32 c7 -18 17 -33 21 -33 4 0 14 15 21 33 l13 32 3 -32 c3 -22 10
-33 20 -33 11 0 14 6 9 23 -3 12 -6 39 -6 60 0 30 -4 37 -19 37 -13 0 -21 -9
-26 -30 -4 -16 -10 -30 -15 -30 -5 0 -11 14 -15 30 -5 21 -13 30 -26 30 -16 0
-19 -7 -19 -44z"/>
<path d="M1660 1585 c-22 -55 -21 -80 2 -57 15 15 55 16 63 2 3 -5 12 -10 20
-10 19 0 -27 114 -48 118 -9 2 -22 -16 -37 -53z m44 0 c3 -9 0 -15 -9 -15 -9
0 -12 6 -9 15 4 8 7 15 9 15 2 0 5 -7 9 -15z"/>
<path d="M1790 1581 c0 -48 3 -61 15 -61 9 0 15 9 16 23 l0 22 16 -22 c8 -13
25 -23 36 -23 20 0 20 0 -1 23 -16 17 -19 26 -11 34 6 6 9 21 7 34 -2 20 -10
25 -40 27 l-38 3 0 -60z m50 24 c0 -8 -4 -15 -10 -15 -5 0 -10 7 -10 15 0 8 5
15 10 15 6 0 10 -7 10 -15z"/>
<path d="M1920 1580 c0 -47 3 -60 15 -60 10 0 15 10 15 28 l1 27 22 -27 c13
-16 31 -28 41 -28 15 0 14 4 -8 31 l-26 31 21 29 c25 35 7 40 -28 7 l-23 -21
0 21 c0 13 -6 22 -15 22 -12 0 -15 -13 -15 -60z"/>
<path d="M2070 1580 l0 -60 35 0 c38 0 48 17 13 22 -28 4 -36 28 -9 28 27 0
27 16 0 23 -25 7 -16 27 12 27 10 0 19 5 19 10 0 6 -16 10 -35 10 l-35 0 0
-60z"/>
<path d="M2170 1630 c0 -5 7 -10 15 -10 11 0 15 -12 15 -50 0 -38 4 -50 15
-50 11 0 15 12 15 50 0 38 4 50 15 50 8 0 15 5 15 10 0 6 -20 10 -45 10 -25 0
-45 -4 -45 -10z"/>
<path d="M2300 1580 c0 -33 4 -60 10 -60 6 0 10 27 10 60 0 33 -4 60 -10 60
-6 0 -10 -27 -10 -60z"/>
<path d="M2370 1580 c0 -45 3 -60 14 -60 9 0 16 12 18 33 l3 32 20 -32 c30
-51 45 -43 45 27 0 33 -4 60 -10 60 -5 0 -10 -13 -10 -30 0 -16 -4 -30 -8 -30
-4 0 -16 14 -25 30 -30 50 -47 39 -47 -30z"/>
<path d="M2526 1618 c-20 -28 -20 -48 0 -76 29 -42 104 -17 104 35 0 8 -12 13
-30 13 -16 0 -30 -4 -30 -10 0 -5 8 -10 17 -10 16 0 16 -1 1 -17 -14 -13 -20
-14 -32 -3 -34 27 -7 78 35 65 15 -5 20 -3 17 6 -3 8 -18 15 -35 17 -23 2 -35
-3 -47 -20z"/>
<path d="M2752 1589 c-26 -61 -27 -69 -7 -69 8 0 15 5 15 10 0 6 11 10 24 10
14 0 28 -4 31 -10 3 -5 12 -10 20 -10 19 0 -27 114 -48 118 -9 2 -22 -16 -35
-49z m42 -4 c3 -9 0 -15 -9 -15 -9 0 -12 6 -9 15 4 8 7 15 9 15 2 0 5 -7 9
-15z"/>
<path d="M2890 1625 c-17 -20 -17 -69 0 -89 28 -35 100 -10 100 35 0 14 -7 19
-30 19 -16 0 -30 -4 -30 -10 0 -5 7 -10 15 -10 17 0 20 -16 6 -24 -15 -10 -39
4 -44 24 -7 26 14 51 38 48 11 -2 22 2 25 7 9 18 -65 18 -80 0z"/>
<path d="M3030 1580 l0 -60 35 0 c19 0 35 5 35 10 0 6 -9 10 -20 10 -11 0 -20
7 -20 15 0 8 9 15 20 15 11 0 20 5 20 10 0 6 -9 10 -20 10 -11 0 -20 7 -20 15
0 8 9 15 20 15 11 0 20 5 20 10 0 6 -16 10 -35 10 l-35 0 0 -60z"/>
<path d="M3140 1580 c0 -47 3 -60 15 -60 11 0 15 11 15 38 l1 37 22 -37 c12
-21 30 -38 40 -38 14 0 17 9 17 60 0 47 -3 60 -15 60 -11 0 -15 -11 -15 -37
l0 -38 -25 38 c-39 56 -55 49 -55 -23z"/>
<path d="M3307 1622 c-39 -43 -8 -102 52 -102 41 0 37 23 -5 30 -48 9 -40 75
9 68 11 -2 22 3 24 10 7 20 -61 15 -80 -6z"/>
<path d="M3439 1606 c12 -18 21 -45 21 -60 0 -16 5 -26 15 -26 10 0 15 10 15
28 0 15 9 42 20 60 15 24 16 32 6 32 -7 0 -19 -7 -26 -15 -12 -14 -15 -14 -30
0 -31 28 -43 17 -21 -19z"/>
</g>
</svg>
